<svg xmlns="http://www.w3.org/2000/svg" viewBox="0 0 955.93 1011.79"><path d="M469.92,1011.43H447c-2.07-.46-4.13-1.08-6.23-1.36-13.09-1.7-26.54-2-39.18-5.35a210.56,210.56,0,0,1-41-15.8c-15.76-8-29.83-19.34-35.24-36.93-4.45-14.45-6.14-29.76-8.83-44.73-1.25-7-1.86-14.08-2.95-21.1-1.55-10-3.31-19.89-4.91-29.85-1.84-11.44-3.59-22.89-5.43-34.33-1.56-9.76-3.18-19.51-4.77-29.27-1-5.86-1.87-11.74-2.85-17.59-1.64-9.75-3.45-19.48-5-29.24-1.88-12.1-3.48-24.24-5.32-36.34-.63-4.11-.42-8.66-5.26-10.95-.86-.41-1.25-2.31-1.44-3.58-1.45-9.79-2.81-19.6-4.16-29.41a10.13,10.13,0,0,0-6-8.37c-8.8-4.53-17.39-9.51-25.86-14.65-10.09-6.13-15.93-15.05-16.88-27.06a106.59,106.59,0,0,0-2.2-12.18q-7.73-38.6-15.49-77.17c-2.22-11,9.13-28.91,25.39-25a615.21,615.21,0,0,0,62.93,12.07c23.52,3.13,47.26,5.24,71,6.06,39.21,1.35,78.47,2,117.69,1.65,46.36-.42,92.73-2.06,138.65-9.23,16.36-2.56,32.56-6.13,48.79-9.49,17.37-3.59,32.5,7,29.8,23.52-1.94,11.9-4.23,23.74-6.49,35.58-3.82,19.93-7.62,39.87-11.68,59.75-1.41,6.93-4.25,13.22-10.75,17.2q-16.07,9.84-31.92,20c-1.53,1-3.25,2.68-3.58,4.3-1.67,8.42-2.83,16.94-4.34,25.4-.75,4.18-.66,9.35-3.12,12.18-3.17,3.65-4,7.5-4.69,11.64-2.31,13.69-4.39,27.43-6.56,41.14q-3.87,24.51-7.75,49c-1,6.53-2,13.07-3.1,19.58-1.55,9.1-3.39,18.15-4.76,27.27-1.56,10.44-2.5,21-4.17,31.4-3,18.89-5.8,37.83-9.8,56.51a87.19,87.19,0,0,1-10,26.1c-9.58,16-25.55,24.85-42,32.35-19.76,9-40.94,12.7-62.42,14.91A34.35,34.35,0,0,0,469.92,1011.43Z" fill="#ffd23f"/><path d="M436.53,590.14v1.05c6.82-.07,13.64,0,20.46-.23a18.93,18.93,0,0,0,17.74-13.65c3.95-13.5-5.15-25.73-19.42-25.92-18.05-.24-36.1-.18-54.15-.54-14.92-.29-29.85-.61-44.73-1.65-18.7-1.3-37.43-2.8-56-5.25-14.47-1.9-28.75-5.28-43.07-8.2-11.86-2.42-21.84,3.39-24.52,14.56-2.57,10.73,3.71,21.12,15,23.81,12.92,3.07,25.86,6.75,39,8.09q50.37,5.12,100.93,8.2C404,591.4,420.28,590.3,436.53,590.14Z" fill="#ffe6a0"/><path d="M637.38,661.84c-2,12.38-4.09,24.76-6.2,37.12a9.63,9.63,0,0,1-1.26,2.5c-1.32,2.55-3.28,5-3.83,7.69-1.78,8.71-2.77,17.6-4.66,26.29a19.27,19.27,0,0,1-4.7,8.82c-10.23,10.66-20.8,21-31.23,31.46-.92.92-1.69,2-3.44,4.08,7.16,6.79,13.8,14.05,21.45,20,6.48,5.08,6.82,11.07,5.59,18-.72,4-1.65,8-2.73,13.19L569.13,793.8l-49.8,49.72,50.19,50,30.69-32,1.38.71c-1,6.58-2.5,13.12-2.83,19.73-.49,10-6,16.81-13.16,22.77-2.72,2.27-3.54,4.49-.19,6.66,7.38,4.8,7.27,11.76,5.77,19.16-.74,3.67-1.64,7.31-2.7,12l-20-19.82-50.38,50.4c6.84,7,13.86,14.12,21.45,21.87-6.18,2.45-11.36,4.92-16.81,6.45-1.86.52-4.91-.73-6.49-2.19-4.24-3.89-8-8.32-12.49-13.14-5.85,6.06-11.29,10.79-15.62,16.39-5.5,7.11-12.95,8.66-21,9.16-4.95.3-9.94.05-16.56.05l38.32-38.4-49.59-49.55L388.72,974.5l35.92,34.12c-19.11-2.23-38.38-3.07-49-21.3a9.94,9.94,0,0,0-2,.57c-7.24,5.36-7.24,5.37-15.13.52-2.62-1.62-5.21-3.3-9.63-6.1l12.42-8.3c-2.59-2.72-3.78-4-5-5.27-9.87-9.88-19.39-20.14-29.75-29.46-5.82-5.23-6.87-11.67-8-18.46-1.21-7.15-2.2-14.34-3.6-21.46-1.17-5.93-.28-10.57,4.49-15.09,13.2-12.54,25.86-25.64,38.73-38.53a21.13,21.13,0,0,0,1.39-1.65L308.81,794l-9,8.41c-3-19.06-5.89-37-8.94-56.16l17.83,17.43,44.82-43.71c-8.42-1.64-16.35-2.91-24.14-4.75-13.85-3.27-27.66-6.71-41.4-10.42-6.5-1.76-8.56-5.5-9.47-12.18-1.4-10.29-3.37-20.5-5.1-30.75h3c4.41,1.86,8.74,3.94,13.25,5.52,47.22,16.55,96.21,23.17,145.92,24.55,23.36.64,46.8-.44,70.16-1.56,30.67-1.47,61.05-5.59,90.6-14.19,13.6-3.95,26.74-9.49,40.09-14.32ZM503.64,828.76a6.8,6.8,0,0,0,1.24-.81q23.34-23.18,46.67-46.35c2.25-2.24,1.65-3.81-.36-5.81Q528.75,753.5,506.46,731c-2.25-2.27-3.67-1.94-5.68.15-4.72,4.91-9.59,9.68-14.43,14.47-11.09,11-22.19,21.93-33.07,32.68ZM437.73,894l50.95-50.68a7.33,7.33,0,0,0-.92-1.43c-15.38-15.4-30.82-30.73-46.12-46.21-2.66-2.7-4.12-1.27-6.05.66-14.53,14.6-29,29.22-43.74,43.66-2.91,2.85-2.57,4.65.12,7.3q16.89,16.59,33.49,33.46C429.75,885.14,433.78,889.75,437.73,894ZM425.14,779.17c-16.7-16.66-32.8-32.7-48.86-48.78-2.45-2.45-3.77-.39-5.26,1.1-14.57,14.55-29,29.21-43.75,43.6-3.16,3.09-2.51,5,.18,7.65,14.83,14.73,29.57,29.56,44.37,44.32a24.8,24.8,0,0,0,3.14,2.23C391.6,812.67,408.1,796.2,425.14,779.17Zm-51.09,79.34a4.32,4.32,0,0,0-1.15.64c-15.5,15.48-30.93,31-46.51,46.42-2.78,2.76-1,4.2.86,6q22.2,22.15,44.37,44.34a20.51,20.51,0,0,0,2.07,1.69l50-49.47ZM503.12,958.65c1.62-1.45,2.87-2.46,4-3.6q12.32-12.25,24.59-24.57c6.43-6.43,12.82-12.92,19.32-19.29,2-1.91,2.73-3.35.37-5.69q-22.67-22.41-45.09-45.06c-2-2-3.64-2-5.49-.09-2.81,2.82-5.6,5.67-8.41,8.48-12,12-23.91,23.95-35.95,35.82-2.63,2.6-3.11,4.43,0,7.24,5.88,5.36,11.37,11.16,17,16.81C483.24,938.57,493,948.46,503.12,958.65Zm25.7-234a9.88,9.88,0,0,0,.94,1.55c11.92,12,23.91,24,35.76,36.1,2.35,2.41,3.76,1.53,5.67-.4,10.76-10.85,21.61-21.6,32.38-32.44,5-5,9.81-10.1,14.64-15.09-4.73-5.48-4.69-5.33-10.94-3.82-9.64,2.32-19.26,4.82-29,6.51C562,719.9,545.61,722.13,528.82,724.68Zm-128.16,1.15a12.46,12.46,0,0,0,1.23,2q17.39,17.45,34.78,34.86c2.44,2.46,4,.85,5.7-.89,4.85-4.91,9.74-9.77,14.59-14.67,6.19-6.25,12.34-12.53,19.12-19.42Z" fill="#f0bb37"/><path d="M482,522.84H438.1c-10.38-.77-20.75-1.77-31.14-2.28-17.38-.85-34.78-1.3-52.16-2.09-12.57-.56-25.13-1.25-37.68-2.17-6.74-.5-13.47-1.42-20.15-2.48q-15.35-2.43-30.62-5.34c-8.53-1.64-17-3.66-25.48-5.48-5.71-1.22-11.41-3.38-17.26-.5-1.88.92-3.78,1.78-5.8,2.73-9.51-13.84-14.5-28.39-12-45.17,3-20.18,13.61-34.88,31.25-44.62,3.33-1.84,4.4-3.27,3.18-7.28-7.9-25.86,1.87-54,25.13-67.87,4.91-2.92,10.17-5.27,15.58-8-10.21-20.23-11.42-40.55.31-60.69,11.85-20.35,30.43-29.09,54.29-30-2.3-4.38-4-7.91-6-11.29-9-15.55-11-31.76-4.24-48.59,7.05-17.48,20.38-27.86,38.45-32.1,19-4.47,37.84-9.52,55.37-18.5,16.86-8.63,32.54-18.72,42.26-35.7,7.51-13.12,10.8-27,5.94-42s-15.62-28.16-35.72-23.25c-4.37,1.06-8.3-.9-10.23-5.28-2-4.55-1.34-9,2.37-12.36C435.38,2,449.22-1.71,464.39.71c16.12,2.57,29.33,10.83,40.32,22.85,19,20.79,26.52,45.54,25,73.21-.27,5,.83,7.15,5.62,8.4a54.44,54.44,0,0,1,23.72,13c13,12.16,20,27,19.42,45.06-.1,3.24.11,6.16,4,7.63,17.68,6.78,29.59,19.38,35.33,37.28a59,59,0,0,1-2.89,44.15c-3.3,7.05-3.58,6.87,3.63,9.39,41.62,14.56,52.69,68.23,22.91,97.6-2.07,2-4,4.19-6.57,6.81,2.25.61,3.66,1,5.06,1.38,6,1.68,12.38,2.64,18,5.19C680.83,383,696.23,400,702.41,424.74c1,4.09,2.12,8.17,3.18,12.25v14a15.78,15.78,0,0,0-1.26,3.75c-1.41,18.22-11.83,32.23-21.65,46.51a3,3,0,0,1-1.74.82c-6.91,1.5-13.8,3-20.73,4.41-9.68,1.9-19.37,3.79-29.09,5.45-6.33,1.07-12.71,1.89-19.1,2.51-9,.87-18.11,1.42-27.17,2.16-15.47,1.26-30.92,3-46.42,3.73-17.22.85-34.49.8-51.74,1.25C485.12,521.6,483.57,522.4,482,522.84Z" fill="#ff7bac"/><path d="M566.06,414.56c-5.27-3.69-12.44-4.7-24.22-1.5-15.43,4.19-22.65,14.49-25.94,21.89a2.24,2.24,0,0,0,0,1.94h0a2.31,2.31,0,0,0,3.53.75c13.24-10.76,28.86-15.61,46.75-14.85a2.31,2.31,0,0,0,2.35-2.65A8.5,8.5,0,0,0,566.06,414.56Z" fill="#ff0b6f"/><path d="M326.34,419.16c5.29-4.4,13.26-6.41,27.24-4.89,18.33,2,28.47,11.19,33.6,18.06a2,2,0,0,1,.34,1.93h0a2.78,2.78,0,0,1-3.87,1.24c-17.07-8.81-35.74-11.43-55.93-8.17a2.64,2.64,0,0,1-3.16-2.29A7.54,7.54,0,0,1,326.34,419.16Z" fill="#ff0b6f"/><circle cx="393.59" cy="404.84" r="17" fill="#222"/><circle cx="505.59" cy="404.84" r="17" fill="#222"/><path d="M476.59,443.12a25.5,25.5,0,0,1-51,0v-.28Z" fill="#222"/><path d="M167.4,791.22q0,29.74-28.47,49.79T72.85,861.07q-29.38,0-49.61-12.54T3,824.53q5.73-14,21.85-30.08t29.73-16.84q8.94,3.95,16.65,19.52a163,163,0,0,1,12.36,36q19.34-.72,19.34-21.85,0-14-10.56-34.21a319.82,319.82,0,0,0-23.11-37.78,277.5,277.5,0,0,1-23.1-39q-10.57-21.48-10.57-37.61,0-26.49,24.36-43.33a93.22,93.22,0,0,1,54.26-16.84q29.91,0,46.57,12.89t16.65,29.73q0,14-5.73,22.39t-9.13,12.89a66.47,66.47,0,0,1-9.13,9.5q-10.75,9.32-16.48,13.61l-5.37,3.94q21.12,26.15,31.87,60.89A77,77,0,0,1,167.4,791.22ZM148.78,647.59q0-16.83-21.49-16.83-12.54,0-20.24,5.37t-7.7,13.43q0,8.06,6.63,19.52t10.56,16.12q8.59-4.29,20.42-15.76T148.78,647.59Z" fill="#fff" stroke="#006adb" stroke-miterlimit="10" stroke-width="10"/><path d="M276,722.09q-11.11,0-19,19.7a106.38,106.38,0,0,0-7.88,39.76q0,44.06,25.43,44.06,16.13,0,36.54-15.4L322.51,826a106.9,106.9,0,0,1-36,25.78q-21,9.32-41.73,9.32-27.93,0-45.31-17t-17.37-51.4q0-41.53,25.61-68t67.16-26.51q26.86,0,42.27,10.93t15.4,27.58q0,16.65-10,28.83A83.41,83.41,0,0,1,296.9,761q-13.8-4.49-22-11.29l5.37-26.86A13.41,13.41,0,0,0,276,722.09Z" fill="#fff" stroke="#006adb" stroke-miterlimit="10" stroke-width="10"/><path d="M809.32,713.68q-13.08-15.58-33.49-15.59t-43.34,16.48a53.2,53.2,0,0,0-4.66-14q-51.23,0-72.71,6.81l-.71,5.37,3.22,2.51q3.23,2.51,6.45,11.28a57.36,57.36,0,0,1,2.82,14.77,125.35,125.35,0,0,1-25,3.68q-1.08-22.57-8.78-34.75t-25.6-12.18a57.75,57.75,0,0,0-16.12,2.51l-16.12-1.43q-38,0-61.25,27.4a96.55,96.55,0,0,0-10.88,15.72,127.41,127.41,0,0,1-21,2.73q-1.06-22.57-8.77-34.75t-25.61-12.18a57.75,57.75,0,0,0-16.12,2.51l-16.12-1.43q-38,0-61.25,27.4T331,793.37q0,32.24,16.12,50t44.05,17.73q34.74,0,58-26.15t31.16-64.11c4.61-.92,9-2,13.16-3.09a115.78,115.78,0,0,0-2.77,25.65q0,32.24,16.12,50t44.05,17.73q34.74,0,58-26.15t31.16-64.11a177.9,177.9,0,0,0,26.38-7.25q-2.58,21.95-13,72.08-13.78,66.61-13.79,81.66t2.87,19.7q36.88-1.8,62.68-11.1,0-30.81,8.24-71.28a84.35,84.35,0,0,0,32.23,6.45q37.62,0,57.13-28.66t19.52-65.9Q822.39,729.26,809.32,713.68Zm-370,96.53q-12.36,15-24.18,15-16.83,0-16.83-33.31a141.49,141.49,0,0,1,5.55-38.86q5.55-19.53,11.64-26a10.58,10.58,0,0,1,5.37-1.08,77,77,0,0,0-1.07,12.54q0,35.1,36.53,35.1Q451.68,795.17,439.32,810.21Zm159.75,0q-12.36,15-24.18,15-16.85,0-16.83-33.31a141.11,141.11,0,0,1,5.55-38.86q5.55-19.53,11.64-26a10.58,10.58,0,0,1,5.37-1.08,77,77,0,0,0-1.07,12.54q0,35.1,36.53,35.1Q611.43,795.17,599.07,810.21Zm146.67,6.44Q738.93,831,729.27,831a37.61,37.61,0,0,1-10.39-1.79q12.17-60.53,14.33-90.62,8.94-3.95,14.32-3.94,10.4,0,10.39,21.13Q757.92,791.58,745.74,816.65Z" fill="#fff" stroke="#006adb" stroke-miterlimit="10" stroke-width="10"/><path d="M951.5,808.41q0,22.22-20.6,37.43t-48.17,15.23q-27.59,0-45.31-9.32T819.69,834q0-8.4,10.92-21.49T853,797.31q16.47,9,29.73,39.76,10.38,0,10.39-6.81a16.48,16.48,0,0,0-2.87-9.31c-1.91-2.86-3.35-5.13-4.3-6.8a61,61,0,0,0-5-7q-3.59-4.47-5.37-6.63-9-10.74-16.12-19.7-17.19-21.48-17.2-37.78t10.39-26.69q17.91-18.27,52.65-18.27,21.86,0,34.75,8.42t12.89,25.07q0,16.67-19.7,38.15Q951.5,790.87,951.5,808.41Zm-24-65.72q4.31-6.63,4.3-12a9.16,9.16,0,0,0-4.66-8.24,20.74,20.74,0,0,0-11.1-2.86q-6.45,0-9.85,3a10.29,10.29,0,0,0-3.4,8.06q0,5,15.4,22.21A37.12,37.12,0,0,0,927.5,742.69Z" fill="#fff" stroke="#006adb" stroke-miterlimit="10" stroke-width="10"/></svg>